<!-- Generated by IcoMoon.io -->
<svg version="1.1" xmlns="http://www.w3.org/2000/svg" width="512" height="512" viewBox="0 0 512 512" fill="currentColor">
  <title>chevron-left</title>
  <g id="icomoon-ignore">
  </g>
  <path d="M75.056 437.12c-48.432-48.368-75.056-112.624-75.056-181.12 0-141.12 114.816-256 256-256l32 32-32 32c-105.872 0-192 86.128-192 192 0 51.376 20 99.632 56.32 135.872l-39.312 5.12-5.952 40.128zM256 512l-32-31.872 32-32.128c105.872 0 192-86.128 192-192 0-51.248-20-99.504-56.368-135.808l39.376-5.184 5.872-40.064c48.432 48.368 75.12 112.688 75.12 181.056 0 141.12-114.88 256-256 256v0z"></path>
</svg>
